HIERARCHY
ROOT Hips
{
	OFFSET -0.001795 -0.223333 0.028219
	CHANNELS 6 Xposition Yposition Zposition Zrotation Yrotation Xrotation 
	JOINT LeftUpLeg
	{
		OFFSET 0.069520 -0.091406 -0.006815
		CHANNELS 3 Zrotation Yrotation Xrotation
		JOINT LeftLeg
		{
			OFFSET 0.034277 -0.375199 -0.004496
			CHANNELS 3 Zrotation Yrotation Xrotation
			JOINT LeftFoot
			{
				OFFSET -0.013596 -0.397961 -0.043693
				CHANNELS 3 Zrotation Yrotation Xrotation
				JOINT LeftToe
				{
					OFFSET 0.026358 -0.055791 0.119288
					CHANNELS 3 Zrotation Yrotation Xrotation
					End Site
					{
						OFFSET 0.000000 0.000000 0.000000
					}
				}
			}
		}
	}
	JOINT RightUpLeg
	{
		OFFSET -0.067670 -0.090522 -0.004320
		CHANNELS 3 Zrotation Yrotation Xrotation
		JOINT RightLeg
		{
			OFFSET -0.038290 -0.382569 -0.008850
			CHANNELS 3 Zrotation Yrotation Xrotation
			JOINT RightFoot
			{
				OFFSET 0.015774 -0.398415 -0.042312
				CHANNELS 3 Zrotation Yrotation Xrotation
				JOINT RightToe
				{
					OFFSET -0.025372 -0.048144 0.123348
					CHANNELS 3 Zrotation Yrotation Xrotation
					End Site
					{
						OFFSET 0.000000 0.000000 0.000000
					}
				}
			}
		}
	}
	JOINT Spine
	{
		OFFSET -0.002533 0.108963 -0.026696
		CHANNELS 3 Zrotation Yrotation Xrotation
		JOINT Spine1
		{
			OFFSET 0.005487 0.135180 0.001092
			CHANNELS 3 Zrotation Yrotation Xrotation
			JOINT Spine2
			{
				OFFSET 0.001457 0.052922 0.025425
				CHANNELS 3 Zrotation Yrotation Xrotation
				JOINT Neck
				{
					OFFSET -0.002778 0.213870 -0.042857
					CHANNELS 3 Zrotation Yrotation Xrotation
					JOINT Head
					{
						OFFSET 0.005152 0.064970 0.051349
						CHANNELS 3 Zrotation Yrotation Xrotation
						End Site
						{
							OFFSET 0.000000 0.000000 0.000000
						}
					}
				}
				JOINT LeftShoulder
				{
					OFFSET 0.078845 0.121749 -0.034090
					CHANNELS 3 Zrotation Yrotation Xrotation
					JOINT LeftArm
					{
						OFFSET 0.090977 0.030469 -0.008868
						CHANNELS 3 Zrotation Yrotation Xrotation
						JOINT LeftForeArm
						{
							OFFSET 0.259612 -0.012772 -0.027456
							CHANNELS 3 Zrotation Yrotation Xrotation
							JOINT LeftHand
							{
								OFFSET 0.249234 0.008986 -0.001171
								CHANNELS 3 Zrotation Yrotation Xrotation
								End Site
								{
									OFFSET 0.000000 0.000000 0.000000
								}
							}
						}
					}
				}
				JOINT RightShoulder
				{
					OFFSET -0.081759 0.118833 -0.038615
					CHANNELS 3 Zrotation Yrotation Xrotation
					JOINT RightArm
					{
						OFFSET -0.096012 0.032551 -0.009143
						CHANNELS 3 Zrotation Yrotation Xrotation
						JOINT RightForeArm
						{
							OFFSET -0.253742 -0.013329 -0.021401
							CHANNELS 3 Zrotation Yrotation Xrotation
							JOINT RightHand
							{
								OFFSET -0.255298 0.007772 -0.005559
								CHANNELS 3 Zrotation Yrotation Xrotation
								End Site
								{
									OFFSET 0.000000 0.000000 0.000000
								}
							}
						}
					}
				}
			}
		}
	}
}
MOTION
Frames: 16
Frame Time: 0.050000
0.000000 0.960184 0.000000 -1.490750 4.584498 3.099626 -1.592903 0.037360 -0.078259 2.952362 -0.086272 -3.550427 -1.743488 1.294991 9.529320 0.000000 0.000000 0.000000 0.668659 0.409276 -3.924927 -2.505662 0.415117 2.250081 -1.364559 -5.678883 6.946600 0.000000 0.000000 0.000000 -0.642352 0.107136 -2.942414 0.260319 0.152416 -6.677093 -0.097460 -1.872623 3.751732 1.960762 -0.333731 -12.102046 0.000000 0.000000 0.000000 23.791753 -11.223565 3.486857 16.260253 -38.621715 -6.403197 37.751503 -10.899876 -3.243255 0.000000 0.000000 0.000000 -28.723314 11.702471 3.091292 -18.500238 32.983250 -5.783679 -27.410684 -0.357680 0.700335 0.000000 0.000000 0.000000 
0.000922 0.960459 -0.000792 -1.448735 4.847257 3.916533 -1.399088 -0.028613 -0.733406 2.753690 -0.041690 -4.065407 -1.725377 0.957373 8.663456 0.000000 0.000000 0.000000 0.418300 0.421406 -4.064677 -2.456682 0.347466 1.199528 -1.219487 -5.462374 7.379744 0.000000 0.000000 0.000000 -1.667475 0.112888 -3.371748 0.760081 -0.134217 -4.710232 0.288642 -1.466595 1.108301 1.860633 -0.177807 -12.402143 0.000000 0.000000 0.000000 22.753995 -10.561929 3.636056 18.711847 -37.985456 -6.945784 40.473169 -10.168444 -3.292387 0.000000 0.000000 0.000000 -28.423106 11.875109 3.215517 -21.713709 30.385014 -5.741228 -24.624481 3.773759 -0.106263 0.000000 0.000000 0.000000 
0.001987 0.961132 -0.001931 -1.480890 4.259933 3.839874 -0.641307 -0.034694 -0.591989 2.357314 -0.064835 -3.171503 -2.069332 -0.040353 7.972046 0.000000 0.000000 0.000000 0.020397 0.443861 -4.344845 -2.281252 0.366383 1.937827 -0.921156 -4.963759 7.669928 0.000000 0.000000 0.000000 -0.345374 0.104416 -2.756930 -0.046017 0.333012 -8.595178 -0.578359 -0.728181 5.054931 2.489784 -0.484486 -13.167579 0.000000 0.000000 0.000000 23.227407 -10.470591 3.551789 20.154095 -37.128549 -7.221399 40.772644 -11.926216 -4.080223 0.000000 0.000000 0.000000 -29.151616 11.572717 2.732547 -20.488189 30.716249 -5.427624 -27.394353 4.943561 -0.366276 0.000000 0.000000 0.000000 
0.002916 0.961740 -0.002893 -1.751086 6.014044 4.061235 -0.483847 -0.118722 -1.506176 2.630968 -0.115771 -2.487427 -2.808280 -1.186840 8.000925 0.000000 0.000000 0.000000 0.316972 0.457487 -4.404407 -2.509448 0.385572 1.674532 -1.050089 -5.217660 8.256345 0.000000 0.000000 0.000000 -0.429927 0.106733 -2.919995 0.108703 0.298651 -8.359870 -0.317230 -1.759660 5.432766 2.874368 -0.628325 -14.265182 0.000000 0.000000 0.000000 23.038840 -11.739803 3.669802 22.129934 -36.480582 -7.510183 41.065532 -10.251930 -3.542659 0.000000 0.000000 0.000000 -28.709309 11.587802 2.739128 -23.361114 30.026739 -5.793707 -27.210168 4.458374 -0.281964 0.000000 0.000000 0.000000 
0.003565 0.961607 -0.003636 -1.536413 6.320732 3.956050 -0.408147 -0.097991 -1.266685 2.182520 -0.081212 -2.464737 -3.094581 -1.660060 8.032755 0.000000 0.000000 0.000000 0.093869 0.453375 -4.398389 -2.291711 0.386868 2.190068 -1.370652 -5.632963 7.330949 0.000000 0.000000 0.000000 -0.600854 0.084869 -2.273069 0.302643 0.269040 -9.390920 -0.667930 -1.439107 6.222720 3.085636 -0.792357 -13.594868 0.000000 0.000000 0.000000 23.137697 -12.920526 3.878172 22.877262 -35.652051 -7.543337 41.065888 -10.534158 -3.735477 0.000000 0.000000 0.000000 -28.308840 10.877810 2.504419 -23.968542 31.310234 -6.168973 -28.898785 3.592526 -0.083064 0.000000 0.000000 0.000000 
0.004059 0.961428 -0.004133 -1.666918 7.033394 3.878090 -0.675376 -0.122931 -1.612537 2.917735 -0.147866 -2.246248 -3.578668 -2.496494 7.976179 0.000000 0.000000 0.000000 0.118575 0.427576 -4.123146 -2.131119 0.363902 2.134199 -1.673721 -6.181678 7.168097 0.000000 0.000000 0.000000 -0.582809 0.078924 -2.110995 0.370924 0.224453 -8.535923 -0.245786 -2.059581 5.566431 2.404468 -0.356074 -13.839924 0.000000 0.000000 0.000000 22.603241 -12.432368 3.801347 23.354049 -36.790635 -7.964361 41.495535 -9.456014 -3.348905 0.000000 0.000000 0.000000 -29.283326 11.798916 2.666742 -24.220829 30.822804 -6.144644 -28.671019 2.510867 0.146417 0.000000 0.000000 0.000000 
0.004306 0.961129 -0.004506 -1.670741 7.213720 3.671350 -0.460123 -0.123379 -1.572052 2.690533 -0.146183 -1.948539 -3.405514 -2.139296 8.018594 0.000000 0.000000 0.000000 0.127249 0.410702 -3.952371 -2.162789 0.392393 2.586236 -1.922145 -6.612216 6.749292 0.000000 0.000000 0.000000 -0.636400 0.066455 -1.723375 0.591167 0.157607 -8.877525 -0.280167 -2.054397 5.928982 2.387763 -0.312622 -14.089182 0.000000 0.000000 0.000000 22.622157 -13.059113 3.881717 23.828727 -36.632690 -8.056926 41.503547 -8.776225 -3.140907 0.000000 0.000000 0.000000 -29.179292 12.015870 2.631799 -24.422654 30.824341 -6.155315 -29.294742 2.610584 0.127948 0.000000 0.000000 0.000000 
0.004359 0.960992 -0.004799 -1.653370 7.381886 3.759175 -0.323575 -0.149410 -1.836462 2.539818 -0.150939 -1.629714 -3.239962 -1.926144 7.834163 0.000000 0.000000 0.000000 -0.008347 0.398264 -3.843508 -1.972481 0.372926 2.722579 -1.846154 -6.343096 6.336637 0.000000 0.000000 0.000000 -0.618427 0.063783 -1.637970 0.738663 0.093127 -8.624513 -0.264410 -2.085091 5.475337 1.983530 -0.033210 -14.236140 0.000000 0.000000 0.000000 22.097117 -13.089384 3.932178 24.425183 -37.258370 -8.428315 41.455974 -8.383195 -2.990590 0.000000 0.000000 0.000000 -28.629742 12.056820 2.685315 -24.685547 31.477892 -6.404254 -30.155355 2.571986 0.146765 0.000000 0.000000 0.000000 
0.004154 0.961180 -0.005022 -1.647511 7.241971 3.800668 -0.090443 -0.173548 -2.058986 2.296211 -0.147327 -1.328641 -3.081603 -1.592723 7.945115 0.000000 0.000000 0.000000 0.012079 0.402075 -3.880473 -2.066219 0.405658 3.115700 -1.807963 -6.246109 6.231202 0.000000 0.000000 0.000000 -0.589678 0.060446 -1.530821 0.712356 0.103838 -8.697732 -0.051055 -2.173665 5.593196 1.519889 0.239377 -14.274115 0.000000 0.000000 0.000000 21.347381 -13.249583 3.929950 25.414232 -37.118278 -8.596417 41.106229 -7.870958 -2.761375 0.000000 0.000000 0.000000 -27.958706 12.331700 2.778989 -24.952612 31.937913 -6.642257 -31.229690 2.599170 0.122685 0.000000 0.000000 0.000000 
0.003792 0.961351 -0.005215 -1.635290 7.070284 3.736666 0.157124 -0.176061 -2.038119 2.099026 -0.124644 -1.451060 -2.926921 -1.210643 8.168210 0.000000 0.000000 0.000000 -0.057420 0.387867 -3.749805 -2.083908 0.404577 3.045337 -1.701874 -6.083253 6.476287 0.000000 0.000000 0.000000 -0.619585 0.055164 -1.356646 0.898201 0.035223 -8.836231 -0.106825 -2.095197 5.657762 0.909892 0.613869 -14.180693 0.000000 0.000000 0.000000 20.683360 -13.428371 3.971064 26.169958 -37.289078 -8.853458 40.847351 -7.382920 -2.573548 0.000000 0.000000 0.000000 -27.088878 12.914214 2.879389 -24.902730 32.382148 -6.774882 -32.476862 2.775535 0.075558 0.000000 0.000000 0.000000 
0.003393 0.961134 -0.005425 -1.622422 6.902820 3.848758 0.295959 -0.193464 -2.212301 2.027726 -0.123805 -1.360140 -2.692324 -0.784720 8.209182 0.000000 0.000000 0.000000 -0.127995 0.397585 -3.858493 -2.064230 0.392045 2.859685 -1.615502 -5.916549 6.517323 0.000000 0.000000 0.000000 -0.555590 0.051357 -1.244684 0.807808 0.061177 -8.713271 -0.050869 -1.873549 5.412585 0.700657 0.768495 -14.315944 0.000000 0.000000 0.000000 20.558661 -13.759777 4.053852 26.899016 -37.242379 -9.052839 40.214622 -6.575405 -2.260382 0.000000 0.000000 0.000000 -26.179600 13.029383 2.937924 -24.500539 32.995526 -6.862766 -33.937672 2.678941 0.116395 0.000000 0.000000 0.000000 
0.003079 0.960866 -0.005651 -1.691122 6.445664 3.938751 0.468239 -0.195225 -2.196729 2.125581 -0.122174 -1.580940 -2.437055 -0.355576 8.241919 0.000000 0.000000 0.000000 -0.184984 0.413797 -4.035314 -2.056314 0.386562 2.785359 -1.458457 -5.608673 6.510208 0.000000 0.000000 0.000000 -0.271373 0.041064 -1.019626 0.719411 0.076771 -8.483424 -0.104574 -1.547476 4.761861 0.337008 0.973548 -13.922894 0.000000 0.000000 0.000000 20.462155 -14.014842 4.137890 27.292175 -37.171074 -9.144991 39.360384 -6.133680 -2.046275 0.000000 0.000000 0.000000 -25.300327 13.516678 3.079740 -24.387507 33.306619 -6.934445 -34.659615 2.992420 0.046732 0.000000 0.000000 0.000000 
0.002983 0.960638 -0.005961 -1.643239 6.141633 4.199118 0.533050 -0.219931 -2.473294 1.972688 -0.105965 -1.661064 -2.078397 0.268149 8.269466 0.000000 0.000000 0.000000 -0.375881 0.438055 -4.314138 -2.035263 0.373201 2.597397 -1.448448 -5.636858 6.613826 0.000000 0.000000 0.000000 -0.193244 0.037943 -0.951632 0.697097 0.073723 -8.357288 -0.073699 -1.386781 4.463536 -0.125379 1.278227 -14.156742 0.000000 0.000000 0.000000 20.163573 -13.831651 4.134454 27.614226 -37.218705 -9.244924 38.903450 -6.314901 -2.060748 0.000000 0.000000 0.000000 -24.844288 13.791787 3.166936 -24.553777 33.674895 -7.092862 -35.168571 2.840511 0.092311 0.000000 0.000000 0.000000 
0.003049 0.960281 -0.006378 -1.629248 5.944610 4.384855 0.528871 -0.223028 -2.506756 2.026544 -0.093736 -1.998227 -1.838711 0.654475 8.224800 0.000000 0.000000 0.000000 -0.468847 0.460261 -4.560733 -2.135407 0.390015 2.666224 -1.522220 -5.787055 6.510416 0.000000 0.000000 0.000000 -0.032139 0.031392 -0.836184 0.637708 0.082092 -8.099539 0.096448 -1.283656 3.748818 -0.340336 1.388643 -13.914403 0.000000 0.000000 0.000000 19.528284 -13.866635 4.182453 27.415323 -37.154320 -9.153668 38.324517 -6.752503 -2.133757 0.000000 0.000000 0.000000 -24.267598 14.200274 3.312067 -24.618729 33.978994 -7.223676 -35.306860 3.223569 -0.010237 0.000000 0.000000 0.000000 
0.003381 0.959873 -0.006855 -1.625019 5.736002 4.608714 0.518566 -0.244002 -2.751049 2.025865 -0.092359 -2.033944 -1.677485 0.956695 8.300604 0.000000 0.000000 0.000000 -0.635808 0.480505 -4.803080 -2.033216 0.374664 2.651516 -1.590392 -5.947295 6.490815 0.000000 0.000000 0.000000 0.092808 0.028863 -0.822428 0.620125 0.080640 -8.001929 0.185024 -1.315994 3.515802 -0.420604 1.447993 -14.292009 0.000000 0.000000 0.000000 19.081690 -13.785399 4.168787 27.018993 -37.036066 -8.969695 37.908417 -7.322558 -2.256444 0.000000 0.000000 0.000000 -23.791544 14.359951 3.411853 -25.254627 34.988394 -7.727161 -35.002575 3.210318 -0.019909 0.000000 0.000000 0.000000 
0.003834 0.959279 -0.007416 -1.597534 5.542270 4.746454 0.412128 -0.244866 -2.770295 2.192577 -0.095346 -2.246570 -1.428689 1.219701 7.951561 0.000000 0.000000 0.000000 -0.813252 0.501981 -5.069552 -1.931654 0.371585 2.869915 -1.842244 -6.466554 6.303968 0.000000 0.000000 0.000000 0.214482 0.023537 -0.741176 0.476052 0.122100 -7.737481 0.357933 -1.108599 3.167514 -0.093531 1.260631 -14.406592 0.000000 0.000000 0.000000 18.355537 -13.711910 4.200096 26.465486 -37.443068 -8.976355 38.230338 -8.220718 -2.552264 0.000000 0.000000 0.000000 -23.034146 14.466036 3.486604 -25.402329 35.691612 -7.982569 -34.629940 4.226824 -0.295598 0.000000 0.000000 0.000000 
